<svg xmlns="http://www.w3.org/2000/svg" width="20" height="17.579" viewBox="0 0 20 17.579">
  <path id="合体_4" data-name="合体 4" d="M2506.191,913.579a.584.584,0,0,1-.584-.584v-1.753h12.306a1.754,1.754,0,0,0,1.124-.408,11.567,11.567,0,0,0,2.965-4.387V913a.583.583,0,0,1-.584.584Zm-3.606-3.529a.584.584,0,0,1-.375-1.032c.031-.026,3.122-2.677,3.325-8.314h16.447c-.2,6.211-3.559,9.088-3.706,9.21a.589.589,0,0,1-.376.135Zm3.022-10.546v-1.753a.578.578,0,0,1,.584-.584h2.921v-.584a.584.584,0,1,1,1.168,0v.584h2.921v-.584a.584.584,0,1,1,1.168,0v.584h2.959v-.584a.584.584,0,1,1,1.168,0v.584h2.921a.578.578,0,0,1,.584.584V899.5Z" transform="translate(-2502 -896)" fill="#202842"/>
</svg>
