<svg xmlns="http://www.w3.org/2000/svg" width="19.557" height="19.575" viewBox="0 0 19.557 19.575">
  <g id="グループ_37" data-name="グループ 37" transform="translate(-152 -605.454)">
    <g id="horse-2" transform="translate(152 605.454)">
      <path id="パス_11" data-name="パス 11" d="M62.12,330.984a1.3,1.3,0,0,1-.519.152h0l.021.975a2.25,2.25,0,0,0,.928-.252,1.833,1.833,0,0,0,.97-1.709h-.976A.859.859,0,0,1,62.12,330.984Z" transform="translate(-59.605 -317.274)" fill="#202842"/>
      <path id="パス_12" data-name="パス 12" d="M220.823,186.808l.774.4-.788.434.471.854,2.4-1.322-2.413-1.231Z" transform="translate(-212.112 -178.637)" fill="#202842"/>
      <path id="パス_13" data-name="パス 13" d="M16.721,3.109l-.006,0A4.849,4.849,0,0,0,13.8,2.122h-.773A4.536,4.536,0,0,0,11.919.938a4.633,4.633,0,0,0-2-.859L9.273,0V.649a13.334,13.334,0,0,0,.112,1.784H6.809L7.872,5.29a2.484,2.484,0,0,0-.21.178L.237,12.528l.416,5.646H2.844a2.647,2.647,0,0,0,1.938-.848l.356-.385a1.5,1.5,0,0,1,.641-.408L9.236,15.3a8.425,8.425,0,0,0,4.168.1A12.779,12.779,0,0,1,13.74,19v.574h6.054V5.512ZM11.274,1.888a3.877,3.877,0,0,1,1.436,2.9H11.4a6.015,6.015,0,0,1-.961-3.377A3.619,3.619,0,0,1,11.274,1.888ZM8.46,3.58H9.61a6.4,6.4,0,0,0,.445,1.211h-.7a2.473,2.473,0,0,0-.431.038ZM18.647,18.428H14.885a12.1,12.1,0,0,0-.531-3.9l-.165-.555-.553.17a7.29,7.29,0,0,1-4.259,0L9.2,14.092,5.42,15.444a2.644,2.644,0,0,0-1.124.719l-.356.385a1.5,1.5,0,0,1-1.1.479H1.719l-.3-4.041L8.453,6.3a1.305,1.305,0,0,1,.9-.361h3.632a3.075,3.075,0,0,1,2.13.661l3.529,3.43v8.4Zm0-10L15.9,5.764l-.026-.023a3.878,3.878,0,0,0-2.016-.892,6.333,6.333,0,0,0-.295-1.58h.23a3.7,3.7,0,0,1,2.22.746l2.629,2.056Z" transform="translate(-0.237 0)" fill="#202842"/>
    </g>
  </g>
</svg>
