<svg id="calendar-2" xmlns="http://www.w3.org/2000/svg" width="24.12" height="21.2" viewBox="0 0 24.12 21.2">
  <path id="パス_7" data-name="パス 7" d="M.706,162.259H19.173a.709.709,0,0,0,.453-.163c.177-.148,4.224-3.618,4.47-11.108H4.262c-.246,6.8-3.972,9.994-4.011,10.026a.7.7,0,0,0,.454,1.244Z" transform="translate(0 -145.314)" fill="#2b57ea"/>
  <path id="パス_8" data-name="パス 8" d="M110.042,32.4H106.52v-.7a.7.7,0,0,0-1.409,0v.7h-3.569v-.7a.7.7,0,1,0-1.409,0v.7H96.611v-.7a.7.7,0,1,0-1.409,0v.7H91.68a.7.7,0,0,0-.7.7v2.113h19.771V33.1A.7.7,0,0,0,110.042,32.4Z" transform="translate(-86.627 -30.988)" fill="#2b57ea"/>
  <path id="パス_9" data-name="パス 9" d="M107.173,303.134a2.12,2.12,0,0,1-1.356.492H90.977v2.113a.7.7,0,0,0,.7.7h18.362a.7.7,0,0,0,.7-.7v-7.9A13.961,13.961,0,0,1,107.173,303.134Z" transform="translate(-86.628 -285.244)" fill="#2b57ea"/>
</svg>
