<svg id="dancing-black-horse-shape-of-side-view" xmlns="http://www.w3.org/2000/svg" width="25.392" height="22" viewBox="0 0 25.392 22">
  <path id="パス_5" data-name="パス 5" d="M.818,13.126,1.642,14.2l-.081-1.185.865,1.11c4.987-.879,6.713,4.859,6.713,4.859,2.591,2.373,6.478,1.569,6.478,1.569a5.19,5.19,0,0,1,4.906,1.53c3.3.191,3.455,4.017,3.455,4.017A4.751,4.751,0,0,0,25.392,29.5c-3.22.039-3.769-3.978-3.769-3.978-.275-3.023-.865-2.565-.865-2.565.63,2.372-2.473,4.781-2.473,4.781.119.383.669.5.669.5,1.491.8.628,1.11.628,1.11A1.256,1.256,0,0,1,18.325,30c.078.918-.943,1.607-.943,1.607a7.327,7.327,0,0,1-1.843,2.41c-.235,0-.353.268-.353.268,0,.727-.982.727-.982.727-.669,0-.746-.192-.746-.192.118-.957,1.57-1.224,1.57-1.224.589-.42.158-.536.158-.536-.9.229-.353-.995-.353-.995a1.8,1.8,0,0,1,1.255-1.76c.51-.115.55-.382.55-.382-.786-.651-1.139-2.717-1.139-2.717a2,2,0,0,1-1.137-.42c-2.4,1.224-7.028-.268-7.028-.268a8.849,8.849,0,0,1-.589,2.6,9.512,9.512,0,0,1-.079,3.672c-.314.689-.353.651-.353.651.588.765-.236.88-.236.88H5.332c-1.257-.077-.471-.689-.471-.689a1.881,1.881,0,0,0,1.06-1.759c-.039-.613-.2-3.444-.2-3.444a2.417,2.417,0,0,0-.509-1.609c-.433.574-2.983.842-2.983.842-.825,1.415,1.1,2.754,1.1,2.754.354-.613.9.115.9.115.548,1.11.195,1.148.195,1.148-.471.038-1.255-.65-1.255-.65C1.682,30.725.9,28.121.9,28.121.424,26.705,2.7,26.362,2.7,26.362,4.587,25.674,3.88,25.1,3.88,25.1c-1.06-1.492-.2-2.373-.2-2.373a2.124,2.124,0,0,0,.392-1.339,9.368,9.368,0,0,1-.746-3.672,3.241,3.241,0,0,1-1.3,1.492s.235-1.454,0,.153a.956.956,0,0,1-1.571.764c-.942-.572-.158-1.988-.158-1.988a9.055,9.055,0,0,1,.786-3.366Z" transform="translate(0 -13.012)" fill="#fff"/>
</svg>
