<svg xmlns="http://www.w3.org/2000/svg" width="27" height="24.126" viewBox="0 0 27 24.126">
  <g id="グループ_10" data-name="グループ 10" transform="translate(1296.008 50.095)">
    <rect id="長方形_54" data-name="長方形 54" width="27" height="3" transform="translate(-1296.008 -50.095)" fill="#fff"/>
    <rect id="長方形_55" data-name="長方形 55" width="27" height="3" transform="translate(-1296.008 -42.095)" fill="#fff"/>
    <path id="パス_177" data-name="パス 177" d="M.819,0h1.2V-2.781c0-.63-.108-1.557-.171-2.187h.036L2.412-3.4,3.447-.6h.765L5.238-3.4l.54-1.566h.036c-.063.63-.162,1.557-.162,2.187V0H6.867V-6.66H5.391L4.284-3.546c-.144.414-.261.855-.4,1.287H3.834c-.135-.432-.261-.873-.4-1.287L2.3-6.66H.819ZM8.505,0H12.69V-1.116H9.837V-2.9h2.34V-4.014H9.837V-5.553h2.754V-6.66H8.505ZM14.04,0H15.3V-2.673c0-.765-.1-1.6-.162-2.322h.045l.675,1.431L17.784,0h1.35V-6.66h-1.26v2.655c0,.756.1,1.638.171,2.331H18l-.666-1.44L15.4-6.66H14.04Zm9.3.126c1.629,0,2.574-.909,2.574-3.123V-6.66H24.633v3.78c0,1.386-.5,1.854-1.3,1.854s-1.26-.468-1.26-1.854V-6.66H20.745V-3C20.745-.783,21.717.126,23.337.126Z" transform="translate(-1296.008 -26.095)" fill="#fff"/>
  </g>
</svg>
