<svg id="XMLID_481_" xmlns="http://www.w3.org/2000/svg" width="24" height="22.049" viewBox="0 0 24 22.049">
  <path id="XMLID_482_" d="M8.409,32.683q.649.57,1.339,1.179l.01.008,1.529,1.321a1.091,1.091,0,0,0,1.427,0l1.529-1.321.009-.008a64.487,64.487,0,0,0,6.938-6.724C23.107,24.8,24,22.693,24,20.5a7.013,7.013,0,0,0-7.089-7.089A7.613,7.613,0,0,0,12,15.246a7.615,7.615,0,0,0-4.911-1.839A7.013,7.013,0,0,0,0,20.5C0,25.3,3.345,28.238,8.409,32.683ZM7.635,22.249h2.91V19.34h2.91v2.91h2.91v2.91h-2.91v2.91h-2.91v-2.91H7.635v-2.91Z" transform="translate(0 -13.407)" fill="#2b57ea"/>
</svg>
