<svg xmlns="http://www.w3.org/2000/svg" width="102.453" height="19.411" viewBox="0 0 102.453 19.411">
  <g id="グループ_11" data-name="グループ 11" transform="translate(-27.897 1.8)">
    <g id="グループ_27" data-name="グループ 27" transform="translate(0 -1.8)">
      <g id="グループ_25" data-name="グループ 25" transform="translate(0 0)">
        <g id="Page-1" transform="translate(111)">
          <g id="_012---Farm-House" data-name="012---Farm-House">
            <path id="Shape" d="M34.232,45.251V40.259l-2.745,2.5Z" transform="translate(-21.332 -27.598)" fill="#0b0700"/>
            <path id="Shape-2" data-name="Shape" d="M28.58,16H26v2.58h2.58Zm-.739,1.2-.645.645a.323.323,0,0,1-.456-.456l.645-.645a.323.323,0,0,1,.456.456Z" transform="translate(-17.615 -11.162)" fill="#050505"/>
            <path id="Shape-3" data-name="Shape" d="M27.014,39H21.589L24.3,41.466Z" transform="translate(-14.627 -26.745)" fill="#0b0700"/>
            <path id="Shape-4" data-name="Shape" d="M20,45.251l2.745-2.5L20,40.259Z" transform="translate(-13.55 -27.598)" fill="#0b0700"/>
            <path id="Shape-5" data-name="Shape" d="M20.031,9.578,17.685,4.491a.64.64,0,0,0-.29-.3l-6.22-3.155a.323.323,0,0,0-.29,0L4.667,4.189a.641.641,0,0,0-.29.3L2.03,9.578a.319.319,0,0,0,.58.266L4.768,5.163a1.293,1.293,0,0,1,.587-.608L10.594,1.9a.965.965,0,0,1,.872,0l5.24,2.658a1.293,1.293,0,0,1,.585.608L19.45,9.844a.319.319,0,0,0,.58-.266Z" transform="translate(-1.355 -0.999)" fill="#0b0700"/>
            <path id="Shape-6" data-name="Shape" d="M19.028,22.081H17.415V12.929L15.351,8.455a.641.641,0,0,0-.29-.3L9.82,5.493a.323.323,0,0,0-.289,0L4.289,8.152a.641.641,0,0,0-.29.3L1.935,12.929v9.152H.322a.323.323,0,1,0,0,.645H19.028a.323.323,0,1,0,0-.645Zm-2.58-9.03a.322.322,0,0,1-.323.323H5.483a.323.323,0,1,1,0-.645H16.125A.323.323,0,0,1,16.448,13.051Zm-3.87-5.16h.645a.323.323,0,1,1,0,.645h-.645a.323.323,0,1,1,0-.645Zm0,1.613h2.258a.323.323,0,1,1,0,.645H12.578a.323.323,0,1,1,0-.645Zm0,1.613h2.9a.322.322,0,1,1,0,.645h-2.9a.322.322,0,1,1,0-.645ZM9.03,6.6h1.29a.323.323,0,1,1,0,.645H9.03a.323.323,0,1,1,0-.645ZM7.74,8.859a.645.645,0,0,1,.645-.645h2.58a.645.645,0,0,1,.645.645v2.58a.645.645,0,0,1-.645.645H8.385a.645.645,0,0,1-.645-.645ZM6.128,7.891h.645a.323.323,0,1,1,0,.645H6.128a.323.323,0,0,1,0-.645ZM4.515,9.5H6.773a.323.323,0,1,1,0,.645H4.515a.323.323,0,0,1,0-.645ZM3.87,11.116h2.9a.322.322,0,1,1,0,.645H3.87a.322.322,0,1,1,0-.645Zm-.323,10.32H2.9a.323.323,0,1,1,0-.645h.645a.323.323,0,1,1,0,.645Zm0-1.613H2.9a.322.322,0,1,1,0-.645h.645a.322.322,0,1,1,0,.645Zm0-1.612H2.9a.323.323,0,0,1,0-.645h.645a.323.323,0,0,1,0,.645Zm0-1.613H2.9a.323.323,0,1,1,0-.645h.645a.323.323,0,1,1,0,.645Zm.323-1.613H2.9a.323.323,0,0,1,0-.645H3.87a.323.323,0,0,1,0,.645Zm.323-1.613H3.225a.323.323,0,1,1,0-.645h.968a.323.323,0,1,1,0,.645Zm8.2,8.708L9.675,19.614,6.962,22.081H5.805V16.276a.645.645,0,0,1,.645-.645H12.9a.645.645,0,0,1,.645.645v5.805Zm2.446,0H14.19V15.309a.322.322,0,0,0-.323-.323H5.483a.322.322,0,0,0-.323.323v6.773H4.515V15.309a.968.968,0,0,1,.968-.968h8.385a.968.968,0,0,1,.968.968Zm1.613-.645H15.8a.323.323,0,1,1,0-.645h.645a.323.323,0,1,1,0,.645Zm0-1.613H15.8a.322.322,0,1,1,0-.645h.645a.322.322,0,1,1,0,.645Zm0-1.612H15.8a.323.323,0,1,1,0-.645h.645a.323.323,0,1,1,0,.645Zm0-1.613H15.8a.323.323,0,1,1,0-.645h.645a.323.323,0,1,1,0,.645Zm0-1.613H15.48a.323.323,0,0,1,0-.645h.968a.323.323,0,1,1,0,.645Z" transform="translate(0 -4.021)" fill="#724c27"/>
          </g>
        </g>
        <path id="パス_138" data-name="パス 138" d="M4.641,1.635V-15.884H.552V1.635Zm18.283,0V-15.884H19.1V-5.357L12.794-15.884h-4.3V1.635h3.773V-9.446L19.178,1.635ZM35.166-6.043c1.5,0,2.322.739,2.322,2.084A2.129,2.129,0,0,1,35.14-1.69H30.76V-6.043ZM34.9-12.507c1.4,0,2.084.554,2.084,1.715,0,1.187-.712,1.741-1.979,1.741H30.76v-3.456ZM34.876,1.635c4.617,0,6.622-2.058,6.622-5.2a4.109,4.109,0,0,0-2.8-4.274,3.659,3.659,0,0,0,2.269-3.456c0-2.717-1.636-4.591-5.356-4.591H26.829V1.635Zm22.4,0V-1.927h-8.39V-15.884H44.8V1.635Zm10.711-2.9c-2.823,0-4.485-1.662-4.485-5.62,0-3.931,1.609-5.962,4.485-5.962s4.459,2.031,4.459,5.962S70.387-1.268,67.986-1.268Zm0,3.509c5.461,0,8.469-3.113,8.469-9.128s-3.008-9.577-8.469-9.577c-5.435,0-8.5,3.562-8.5,9.5C59.491-1.056,62.551,2.241,67.986,2.241Z" transform="translate(27.345 17.169)" fill="#202842"/>
      </g>
    </g>
  </g>
</svg>
